<?xml version="1.0" encoding="UTF-8" standalone="no"?>
<svg
   xmlns:dc="http://purl.org/dc/elements/1.1/"
   xmlns:cc="http://creativecommons.org/ns#"
   xmlns:rdf="http://www.w3.org/1999/02/22-rdf-syntax-ns#"
   xmlns:svg="http://www.w3.org/2000/svg"
   xmlns="http://www.w3.org/2000/svg"
   xmlns:sodipodi="http://sodipodi.sourceforge.net/DTD/sodipodi-0.dtd"
   xmlns:inkscape="http://www.inkscape.org/namespaces/inkscape"
   version="1.1"
   id="svg2"
   xml:space="preserve"
   width="497.48492"
   height="289.14014"
   viewBox="0 0 497.48492 289.14014"
   sodipodi:docname="logo.svg"
   inkscape:version="1.0.2 (e86c870879, 2021-01-15)"><metadata
     id="metadata8"><rdf:RDF><cc:Work
         rdf:about=""><dc:format>image/svg+xml</dc:format><dc:type
           rdf:resource="http://purl.org/dc/dcmitype/StillImage" /><dc:title></dc:title></cc:Work></rdf:RDF></metadata><defs
     id="defs6"><clipPath
       clipPathUnits="userSpaceOnUse"
       id="clipPath18"><path
         d="M 0,400 H 600 V 0 H 0 Z"
         id="path16" /></clipPath></defs><sodipodi:namedview
     pagecolor="#ffffff"
     bordercolor="#666666"
     borderopacity="1"
     objecttolerance="10"
     gridtolerance="10"
     guidetolerance="10"
     inkscape:pageopacity="0"
     inkscape:pageshadow="2"
     inkscape:window-width="1366"
     inkscape:window-height="719"
     id="namedview4"
     inkscape:document-rotation="0"
     showgrid="false"
     fit-margin-top="0"
     fit-margin-left="0"
     fit-margin-right="0"
     fit-margin-bottom="0"
     inkscape:zoom="0.98437504"
     inkscape:cx="251.37627"
     inkscape:cy="163.41065"
     inkscape:window-x="1366"
     inkscape:window-y="20"
     inkscape:window-maximized="1"
     inkscape:current-layer="g10" /><g
     id="g10"
     inkscape:groupmode="layer"
     inkscape:label="logo_large"
     transform="matrix(1.3333333,0,0,-1.3333333,-148.62373,430.07732)"><g
       id="g12"><g
         id="g14"
         clip-path="url(#clipPath18)"><g
           id="g20"
           transform="translate(158.0356,168.5586)"><path
             d="m 0,0 -0.811,-7.617 c -0.792,0.576 -1.602,0.976 -2.43,1.202 -0.829,0.225 -1.918,0.338 -3.268,0.338 h -12.937 c -0.883,0 -1.509,-0.072 -1.878,-0.217 -0.369,-0.144 -0.679,-0.423 -0.931,-0.837 -0.127,-0.252 -0.298,-0.765 -0.514,-1.539 -0.216,-0.774 -0.324,-1.297 -0.324,-1.566 0,-0.902 0.739,-1.351 2.215,-1.351 h 11.209 c 1.962,0 3.357,-0.379 4.186,-1.135 1.152,-1.044 1.729,-2.313 1.729,-3.808 0,-0.666 -0.163,-1.629 -0.487,-2.89 l -2.43,-9.372 c -0.487,-1.891 -0.969,-3.268 -1.445,-4.132 -0.478,-0.864 -1.175,-1.62 -2.093,-2.268 -1.027,-0.721 -2.044,-1.175 -3.053,-1.365 -1.008,-0.189 -2.944,-0.293 -5.806,-0.31 h -24.335 l 1.026,7.454 c 1.026,-0.612 1.904,-0.995 2.633,-1.148 0.73,-0.153 2.057,-0.229 3.984,-0.229 h 12.046 c 0.99,0 1.648,0.062 1.972,0.188 0.324,0.126 0.594,0.433 0.81,0.919 0.504,1.044 0.756,2.007 0.756,2.89 0,0.882 -0.711,1.323 -2.134,1.323 l -1.485,-0.026 h -8.913 c -4.609,0 -6.914,1.691 -6.914,5.077 0,0.918 0.252,2.35 0.756,4.294 l 2.215,8.508 c 0.396,1.585 0.878,2.804 1.445,3.66 0.567,0.854 1.4,1.643 2.498,2.363 0.882,0.558 1.854,0.963 2.917,1.215 1.062,0.252 2.341,0.379 3.835,0.379 z"
             style="fill:#005953;fill-opacity:1;fill-rule:nonzero;stroke:none"
             id="path22" /></g><g
           id="g24"
           transform="translate(170.2441,151.1377)"><path
             d="m 0,0 -2.836,-11.073 c -0.198,-0.902 -0.297,-1.423 -0.297,-1.567 0,-0.541 0.203,-0.932 0.608,-1.175 0.405,-0.243 1.057,-0.365 1.958,-0.365 h 3.943 c 1.188,0 1.99,0.14 2.404,0.419 0.414,0.279 0.747,0.905 0.999,1.877 L 9.507,-1.378 C 9.723,-0.55 9.832,0.09 9.832,0.54 9.832,1.206 9.615,1.684 9.183,1.972 8.751,2.259 8.049,2.403 7.077,2.403 H 3.728 C 2.467,2.403 1.598,2.25 1.121,1.944 0.644,1.638 0.271,0.99 0,0 m -1.62,7.67 h 16.448 c 1.26,0 2.201,-0.063 2.822,-0.189 0.621,-0.126 1.274,-0.387 1.958,-0.783 1.045,-0.594 1.864,-1.431 2.458,-2.511 0.595,-1.082 0.892,-2.27 0.892,-3.566 0,-0.9 -0.153,-1.935 -0.459,-3.106 l -2.566,-9.912 c -0.378,-1.458 -0.788,-2.566 -1.229,-3.322 -0.442,-0.757 -1.085,-1.459 -1.932,-2.107 -0.81,-0.63 -1.751,-1.058 -2.822,-1.282 -1.071,-0.226 -2.687,-0.338 -4.848,-0.338 H -7.265 c -2.107,0 -3.525,0.076 -4.254,0.229 -0.729,0.154 -1.463,0.518 -2.201,1.094 -1.711,1.387 -2.566,3.205 -2.566,5.456 0,0.648 0.117,1.413 0.351,2.296 l 3.052,11.884 c 0.612,2.322 1.737,3.929 3.376,4.82 1.638,0.892 4.267,1.337 7.887,1.337"
             style="fill:#005953;fill-opacity:1;fill-rule:nonzero;stroke:none"
             id="path26" /></g><g
           id="g28"
           transform="translate(234.1216,158.8076)"><path
             d="m 0,0 -5.753,-22.228 c -0.234,-0.936 -0.351,-1.918 -0.351,-2.944 0,-0.594 0.125,-1.242 0.378,-1.944 h -12.235 l -0.135,2.161 c -0.702,-1.441 -2.008,-2.161 -3.916,-2.161 h -10.101 c -2.305,0 -4.043,0.405 -5.213,1.216 -0.901,0.629 -1.616,1.421 -2.147,2.376 -0.532,0.954 -0.797,1.926 -0.797,2.917 0,0.63 0.144,1.503 0.432,2.62 l 3.403,13.098 c 0.234,0.937 0.351,1.91 0.351,2.917 0,0.595 -0.126,1.252 -0.378,1.972 h 14.558 l -4.997,-19.283 c -0.108,-0.415 -0.162,-0.748 -0.162,-1 0,-1.044 0.711,-1.567 2.134,-1.567 h 3.673 c 0.9,0 1.557,0.158 1.972,0.473 0.414,0.314 0.729,0.914 0.945,1.796 l 3.808,14.692 c 0.252,0.973 0.378,1.946 0.378,2.917 0,0.576 -0.126,1.234 -0.378,1.972 z"
             style="fill:#005953;fill-opacity:1;fill-rule:nonzero;stroke:none"
             id="path30" /></g><g
           id="g32"
           transform="translate(264.8853,158.8076)"><path
             d="M 0,0 -1.377,-5.267 H -12.1 l -3.538,-13.719 c -0.072,-0.271 -0.108,-0.54 -0.108,-0.811 0,-0.738 0.292,-1.266 0.878,-1.58 0.585,-0.315 1.535,-0.473 2.849,-0.473 h 3.539 c 1.638,0 3.177,0.28 4.618,0.837 l -1.567,-6.103 h -13.504 c -1.801,0 -3.273,0.095 -4.416,0.283 -1.144,0.189 -2.022,0.491 -2.633,0.905 -0.955,0.63 -1.702,1.441 -2.242,2.431 -0.54,0.99 -0.81,2.034 -0.81,3.133 0,0.63 0.108,1.359 0.324,2.187 l 3.349,12.91 h -5.591 L -29.602,0 h 5.591 L -22.688,5.159 -9.183,5.97 -10.75,0 Z"
             style="fill:#005953;fill-opacity:1;fill-rule:nonzero;stroke:none"
             id="path34" /></g><g
           id="g36"
           transform="translate(283.1982,168.5586)"><path
             d="m 0,0 -2.917,-11.29 c 0.648,0.63 1.274,1.044 1.877,1.242 0.603,0.198 1.499,0.297 2.687,0.297 H 8.67 c 1.728,0 3.038,-0.121 3.93,-0.364 0.891,-0.243 1.706,-0.698 2.444,-1.364 0.756,-0.685 1.354,-1.503 1.796,-2.458 0.441,-0.955 0.662,-1.89 0.662,-2.809 0,-0.775 -0.162,-1.792 -0.486,-3.052 l -3.161,-12.208 c -0.233,-0.9 -0.351,-1.873 -0.351,-2.917 0,-0.576 0.118,-1.224 0.351,-1.944 h -15.61 c 0.719,1.044 1.251,1.971 1.593,2.782 0.342,0.81 0.711,1.981 1.107,3.511 l 3.079,11.911 c 0.198,0.756 0.297,1.323 0.297,1.701 0,1.296 -0.918,1.944 -2.755,1.944 H -1.08 c -1.153,0 -1.959,-0.202 -2.418,-0.607 -0.459,-0.405 -0.859,-1.256 -1.201,-2.553 l -3.566,-13.828 c -0.234,-0.9 -0.351,-1.873 -0.351,-2.917 0,-0.594 0.117,-1.242 0.351,-1.944 h -15.61 c 0.702,1.044 1.228,1.971 1.58,2.782 0.351,0.81 0.724,1.981 1.12,3.511 l 6.644,25.712 c 0.234,0.9 0.351,1.872 0.351,2.917 0,0.593 -0.117,1.242 -0.351,1.945 z"
             style="fill:#005953;fill-opacity:1;fill-rule:nonzero;stroke:none"
             id="path38" /></g><g
           id="g40"
           transform="translate(317.8789,136.958)"><path
             d="m 0,0 h 2.891 c 0.845,0 1.422,0.036 1.728,0.108 0.305,0.072 0.575,0.234 0.81,0.487 0.467,0.504 0.9,1.503 1.296,2.997 l 2.459,9.534 c 0.252,1.009 0.377,1.594 0.377,1.756 0,1.134 -0.909,1.701 -2.728,1.701 H 3.646 C 2.638,16.583 1.953,16.426 1.594,16.11 1.232,15.795 0.909,15.07 0.621,13.937 L -2.215,2.971 C -2.395,2.196 -2.484,1.72 -2.484,1.54 -2.484,0.514 -1.656,0 0,0 M 1.289,30.903 0.777,20.669 c 0.522,0.595 2.545,0.753 3.032,0.925 0.486,0.171 1.295,0.256 2.429,0.256 h 7.78 c 1.459,0 2.601,-0.118 3.429,-0.351 0.828,-0.234 1.657,-0.685 2.486,-1.351 1.71,-1.368 2.565,-3.07 2.565,-5.104 0,-1.207 -0.152,-2.387 -0.459,-3.538 L 19.527,1.782 C 18.896,-0.685 17.902,-2.476 16.543,-3.592 15.184,-4.709 13.324,-5.267 10.965,-5.267 H 1.026 c -1.53,0 -2.63,0.176 -3.295,0.527 -0.667,0.351 -1.143,1.012 -1.431,1.985 L -4.349,-5.267 H -18.69 c 0.702,1.044 1.229,1.972 1.58,2.783 0.351,0.809 0.724,1.98 1.121,3.51 l 11.137,21.946 c 0.234,0.9 2.559,3.049 2.559,4.094 0,0.595 1.257,4.159 1.023,4.861 z"
             style="fill:#439539;fill-opacity:1;fill-rule:nonzero;stroke:none"
             id="path42" /></g><g
           id="g44"
           transform="translate(357.5293,158.8076)"><path
             d="m 0,0 c -0.037,-0.647 -0.072,-1.44 -0.109,-2.376 -0.018,-0.667 -0.08,-1.414 -0.189,-2.242 0.937,1.801 1.931,3.02 2.985,3.66 C 3.74,-0.319 5.266,0 7.265,0 h 7.508 l -2.295,-8.886 c -0.973,0.882 -2.486,1.351 -4.539,1.405 H 3.295 c -1.172,0 -2.022,-0.171 -2.553,-0.513 -0.531,-0.343 -0.914,-0.955 -1.148,-1.837 l -3.213,-12.424 c -0.235,-0.9 -0.352,-1.882 -0.352,-2.943 0,-0.577 0.117,-1.216 0.352,-1.918 H -19.23 c 0.701,1.044 1.228,1.971 1.58,2.782 0.35,0.81 0.724,1.98 1.121,3.511 l 4.132,15.934 c 0.233,0.937 0.35,1.91 0.35,2.917 0,0.595 -0.126,1.252 -0.378,1.972 z"
             style="fill:#439539;fill-opacity:1;fill-rule:nonzero;stroke:none"
             id="path46" /></g><g
           id="g48"
           transform="translate(383.8359,151.1377)"><path
             d="m 0,0 -2.836,-11.073 c -0.198,-0.902 -0.297,-1.423 -0.297,-1.567 0,-0.541 0.203,-0.932 0.608,-1.175 0.405,-0.243 1.057,-0.365 1.959,-0.365 h 3.943 c 1.187,0 1.988,0.14 2.403,0.419 0.413,0.279 0.747,0.905 0.999,1.877 L 9.508,-1.378 C 9.723,-0.55 9.832,0.09 9.832,0.54 9.832,1.206 9.615,1.684 9.184,1.972 8.751,2.259 8.049,2.403 7.076,2.403 H 3.728 C 2.467,2.403 1.598,2.25 1.121,1.944 0.644,1.638 0.271,0.99 0,0 m -1.62,7.67 h 16.448 c 1.26,0 2.201,-0.063 2.822,-0.189 0.621,-0.126 1.274,-0.387 1.958,-0.783 1.044,-0.594 1.865,-1.431 2.458,-2.511 0.594,-1.082 0.891,-2.27 0.891,-3.566 0,-0.9 -0.152,-1.935 -0.459,-3.106 l -2.565,-9.912 c -0.378,-1.458 -0.788,-2.566 -1.23,-3.322 -0.441,-0.757 -1.084,-1.459 -1.931,-2.107 -0.809,-0.63 -1.751,-1.058 -2.822,-1.282 -1.071,-0.226 -2.687,-0.338 -4.848,-0.338 H -7.266 c -2.106,0 -3.524,0.076 -4.254,0.229 -0.728,0.154 -1.462,0.518 -2.201,1.094 -1.711,1.387 -2.565,3.205 -2.565,5.456 0,0.648 0.116,1.413 0.35,2.296 l 3.053,11.884 c 0.612,2.322 1.737,3.929 3.376,4.82 1.638,0.892 4.267,1.337 7.887,1.337"
             style="fill:#439539;fill-opacity:1;fill-rule:nonzero;stroke:none"
             id="path50" /></g><g
           id="g52"
           transform="translate(422.8105,151.1377)"><path
             d="m 0,0 -2.836,-11.073 c -0.197,-0.902 -0.297,-1.423 -0.297,-1.567 0,-0.541 0.203,-0.932 0.609,-1.175 0.405,-0.243 1.057,-0.365 1.958,-0.365 h 3.943 c 1.187,0 1.989,0.14 2.404,0.419 0.413,0.279 0.746,0.905 0.998,1.877 L 9.508,-1.378 C 9.724,-0.55 9.832,0.09 9.832,0.54 9.832,1.206 9.615,1.684 9.184,1.972 8.752,2.259 8.049,2.403 7.077,2.403 H 3.729 C 2.467,2.403 1.599,2.25 1.121,1.944 0.645,1.638 0.271,0.99 0,0 m -1.619,7.67 h 16.447 c 1.261,0 2.201,-0.063 2.822,-0.189 0.621,-0.126 1.274,-0.387 1.959,-0.783 1.044,-0.594 1.864,-1.431 2.457,-2.511 0.595,-1.082 0.892,-2.27 0.892,-3.566 0,-0.9 -0.153,-1.935 -0.459,-3.106 l -2.565,-9.912 c -0.379,-1.458 -0.789,-2.566 -1.23,-3.322 -0.441,-0.757 -1.085,-1.459 -1.931,-2.107 -0.81,-0.63 -1.752,-1.058 -2.822,-1.282 -1.072,-0.226 -2.687,-0.338 -4.848,-0.338 H -7.265 c -2.106,0 -3.524,0.076 -4.254,0.229 -0.729,0.154 -1.462,0.518 -2.201,1.094 -1.711,1.387 -2.565,3.205 -2.565,5.456 0,0.648 0.116,1.413 0.35,2.296 l 3.052,11.884 c 0.612,2.322 1.738,3.929 3.377,4.82 1.638,0.892 4.267,1.337 7.887,1.337"
             style="fill:#439539;fill-opacity:1;fill-rule:nonzero;stroke:none"
             id="path54" /></g><g
           id="g56"
           transform="translate(467.1875,168.5586)"><path
             d="m 0,0 -4.97,-19.258 8.373,5.996 c 0.827,0.594 1.476,1.157 1.945,1.689 0.468,0.53 0.855,1.137 1.162,1.822 h 10.884 c -1.621,-0.937 -3.304,-2.053 -5.05,-3.349 l -6.565,-4.78 4.809,-13.774 c 0.432,-1.261 0.818,-2.198 1.161,-2.81 0.342,-0.612 0.899,-1.413 1.675,-2.403 H -0.973 l -3.969,11.209 -2.027,-1.27 -1.296,-5.051 c -0.234,-0.9 -0.35,-1.881 -0.35,-2.944 0,-0.576 0.116,-1.224 0.35,-1.944 h -15.61 c 0.72,1.044 1.251,1.971 1.593,2.782 0.342,0.81 0.711,1.981 1.107,3.511 l 6.644,25.712 c 0.234,0.9 0.351,1.872 0.351,2.917 0,0.593 -0.117,1.242 -0.351,1.945 z"
             style="fill:#439539;fill-opacity:1;fill-rule:nonzero;stroke:none"
             id="path58" /></g><g
           id="g60"
           transform="translate(196.2656,120.5879)"><path
             d="M 0,0 H 3.178 C 3.678,0 4.006,0.016 4.163,0.051 4.32,0.084 4.474,0.168 4.627,0.305 4.83,0.5 5.008,0.881 5.161,1.449 l 0.394,1.537 c 0.042,0.153 0.063,0.293 0.063,0.42 0,0.533 -0.386,0.801 -1.157,0.801 h -3.38 z m -1.919,-7.424 h 3.635 c 0.483,0 0.818,0.082 1.004,0.248 0.187,0.166 0.352,0.531 0.496,1.1 l 0.483,1.855 c 0.051,0.203 0.076,0.369 0.076,0.496 0,0.313 -0.104,0.536 -0.311,0.668 -0.208,0.131 -0.553,0.196 -1.036,0.196 H -0.75 Z m 9.545,5.986 c 0.941,-0.117 1.627,-0.33 2.06,-0.634 0.534,-0.381 0.801,-0.907 0.801,-1.576 0,-0.221 -0.03,-0.442 -0.09,-0.661 L 9.788,-6.674 C 9.609,-7.385 9.432,-7.918 9.253,-8.27 9.076,-8.621 8.817,-8.949 8.479,-9.254 8.046,-9.652 7.54,-9.924 6.959,-10.068 6.379,-10.211 5.534,-10.283 4.423,-10.283 H -9.851 c 0.339,0.5 0.589,0.937 0.75,1.314 0.161,0.377 0.335,0.926 0.521,1.647 l 3.127,12.101 c 0.11,0.414 0.165,0.873 0.165,1.373 0,0.28 -0.055,0.584 -0.165,0.914 H 8.071 c 1.246,0 2.111,-0.127 2.594,-0.38 0.5,-0.264 0.902,-0.641 1.207,-1.131 0.347,-0.561 0.521,-1.119 0.521,-1.678 0,-0.789 -0.19,-1.775 -0.572,-2.963 C 11.652,0.398 11.391,-0.049 11.04,-0.426 10.688,-0.803 10.296,-1.051 9.864,-1.17 9.491,-1.271 8.745,-1.361 7.626,-1.438"
             style="fill:#005953;fill-opacity:1;fill-rule:nonzero;stroke:none"
             id="path62" /></g><g
           id="g64"
           transform="translate(218.561,116.3926)"><path
             d="M 0,0 H -3.025 C -3.534,0 -3.869,-0.059 -4.029,-0.178 -4.19,-0.297 -4.33,-0.58 -4.449,-1.029 l -0.343,-1.297 c -0.068,-0.272 -0.102,-0.449 -0.102,-0.533 0,-0.289 0.089,-0.487 0.267,-0.592 0.178,-0.106 0.5,-0.158 0.966,-0.158 h 1.538 c 0.551,0 0.898,0.046 1.042,0.138 0.144,0.094 0.272,0.352 0.382,0.776 z M -8.071,6.674 H 3.584 c 0.551,0 0.988,-0.051 1.31,-0.153 C 5.216,6.42 5.534,6.236 5.847,5.975 6.203,5.67 6.487,5.287 6.699,4.83 6.911,4.373 7.017,3.92 7.017,3.471 7.017,3.012 6.923,2.428 6.737,1.717 L 5.313,-3.787 c -0.11,-0.424 -0.165,-0.887 -0.165,-1.387 0,-0.271 0.055,-0.576 0.165,-0.914 h -6.165 c -0.101,0.313 -0.152,0.631 -0.152,0.953 V -4.83 C -1.25,-5.287 -1.563,-5.611 -1.945,-5.803 -2.326,-5.992 -2.839,-6.088 -3.483,-6.088 h -3.686 c -1.169,0 -2.076,0.262 -2.72,0.787 -0.763,0.619 -1.144,1.395 -1.144,2.326 0,0.348 0.059,0.743 0.178,1.182 l 0.317,1.234 c 0.288,1.135 0.733,1.918 1.335,2.352 0.602,0.432 1.542,0.648 2.822,0.648 h 5.962 c 0.465,0 0.762,0.055 0.889,0.164 0.238,0.196 0.356,0.493 0.356,0.891 0,0.272 -0.097,0.455 -0.292,0.553 -0.195,0.097 -0.551,0.146 -1.068,0.146 H -6.737 C -7.949,4.203 -8.851,4.037 -9.444,3.699 Z"
             style="fill:#005953;fill-opacity:1;fill-rule:nonzero;stroke:none"
             id="path66" /></g><g
           id="g68"
           transform="translate(236.7256,120.5879)"><path
             d="m 0,0 h -1.424 c -0.5,0 -0.847,-0.072 -1.042,-0.217 -0.195,-0.144 -0.352,-0.449 -0.47,-0.914 l -1.246,-4.844 c -0.11,-0.416 -0.165,-0.757 -0.165,-1.029 0,-0.535 0.389,-0.801 1.169,-0.801 h 1.475 c 0.516,0 0.866,0.096 1.048,0.285 0.182,0.192 0.367,0.655 0.553,1.393 l 1.157,4.449 c 0.034,0.143 0.072,0.287 0.114,0.432 0.068,0.221 0.102,0.398 0.102,0.533 0,0.264 -0.095,0.447 -0.286,0.553 C 0.794,-0.053 0.466,0 0,0 m -12.736,-14.885 3.902,15.063 c 0.11,0.439 0.165,0.902 0.165,1.385 0,0.279 -0.059,0.585 -0.178,0.916 h 6.559 V 1.398 c 0.288,0.424 0.591,0.709 0.909,0.858 0.317,0.148 0.79,0.223 1.417,0.223 H 3.559 C 4.33,2.479 4.93,2.41 5.358,2.275 5.786,2.139 6.19,1.893 6.572,1.537 7.173,0.961 7.474,0.266 7.474,-0.547 7.474,-0.902 7.376,-1.445 7.182,-2.174 L 5.873,-7.232 C 5.601,-8.309 5.14,-9.086 4.487,-9.566 3.834,-10.045 2.915,-10.283 1.729,-10.283 h -4.576 c -0.611,0 -1.066,0.088 -1.367,0.265 -0.301,0.18 -0.557,0.506 -0.769,0.981 l -0.915,-3.547 c -0.11,-0.441 -0.165,-0.898 -0.165,-1.373 0,-0.279 0.059,-0.59 0.178,-0.928 z"
             style="fill:#005953;fill-opacity:1;fill-rule:nonzero;stroke:none"
             id="path70" /></g><g
           id="g72"
           transform="translate(258.7925,123.0664)"><path
             d="m 0,0 -0.648,-2.479 h -5.046 l -1.665,-6.457 c -0.035,-0.127 -0.051,-0.253 -0.051,-0.382 0,-0.348 0.138,-0.594 0.413,-0.743 0.275,-0.148 0.722,-0.222 1.341,-0.222 h 1.665 c 0.771,0 1.495,0.131 2.174,0.394 l -0.738,-2.873 H -8.91 c -0.848,0 -1.54,0.045 -2.078,0.133 -0.539,0.09 -0.952,0.231 -1.24,0.426 -0.449,0.297 -0.8,0.678 -1.055,1.144 -0.254,0.465 -0.381,0.957 -0.381,1.475 0,0.297 0.051,0.639 0.152,1.029 l 1.576,6.076 h -2.63 L -13.931,0 h 2.631 l 0.623,2.428 6.356,0.381 L -5.059,0 Z"
             style="fill:#005953;fill-opacity:1;fill-rule:nonzero;stroke:none"
             id="path74" /></g><g
           id="g76"
           transform="translate(267.6147,127.6543)"><path
             d="M 0,0 -0.865,-3.381 H -7.118 L -6.241,0 Z M -1.182,-4.588 -3.89,-15.049 c -0.11,-0.433 -0.165,-0.898 -0.165,-1.398 0,-0.272 0.055,-0.573 0.165,-0.903 h -7.347 c 0.339,0.491 0.59,0.928 0.75,1.309 0.161,0.381 0.335,0.932 0.521,1.652 l 1.945,7.5 c 0.11,0.44 0.166,0.899 0.166,1.373 0,0.28 -0.06,0.588 -0.179,0.928 z"
             style="fill:#005953;fill-opacity:1;fill-rule:nonzero;stroke:none"
             id="path78" /></g><g
           id="g80"
           transform="translate(282.7788,123.0664)"><path
             d="m 0,0 -0.127,-2.938 c -0.432,0.188 -0.856,0.311 -1.271,0.37 -0.415,0.058 -1.034,0.089 -1.856,0.089 h -5.377 c -0.584,0 -0.877,-0.22 -0.877,-0.662 0,-0.185 0.064,-0.306 0.191,-0.361 0.127,-0.055 0.398,-0.082 0.814,-0.082 h 4.512 c 0.881,0 1.559,-0.225 2.033,-0.674 0.577,-0.551 0.865,-1.183 0.865,-1.894 0,-0.33 -0.068,-0.754 -0.203,-1.272 l -0.509,-1.957 c -0.17,-0.67 -0.362,-1.191 -0.578,-1.564 -0.216,-0.373 -0.515,-0.703 -0.896,-0.991 -0.432,-0.33 -0.892,-0.55 -1.38,-0.662 -0.487,-0.109 -1.235,-0.164 -2.243,-0.164 h -10.805 l 0.293,2.873 c 0.508,-0.17 0.879,-0.267 1.112,-0.293 0.233,-0.025 1.024,-0.06 2.371,-0.101 h 5.034 c 0.618,0 0.927,0.304 0.927,0.914 0,0.17 -0.044,0.283 -0.133,0.338 -0.089,0.054 -0.265,0.082 -0.528,0.082 h -3.749 c -0.78,0 -1.378,0.037 -1.793,0.107 -0.415,0.072 -0.754,0.197 -1.016,0.375 -0.755,0.535 -1.132,1.289 -1.132,2.264 0,0.271 0.03,0.521 0.089,0.75 l 0.674,2.592 c 0.398,1.205 0.919,1.984 1.563,2.34 0.542,0.322 1.441,0.496 2.695,0.521 z"
             style="fill:#005953;fill-opacity:1;fill-rule:nonzero;stroke:none"
             id="path82" /></g><g
           id="g84"
           transform="translate(297.041,123.0664)"><path
             d="m 0,0 -0.648,-2.479 h -5.046 l -1.665,-6.457 c -0.035,-0.127 -0.051,-0.253 -0.051,-0.382 0,-0.348 0.138,-0.594 0.413,-0.743 0.275,-0.148 0.722,-0.222 1.341,-0.222 h 1.665 c 0.771,0 1.495,0.131 2.174,0.394 l -0.738,-2.873 H -8.91 c -0.848,0 -1.54,0.045 -2.078,0.133 -0.539,0.09 -0.952,0.231 -1.24,0.426 -0.449,0.297 -0.8,0.678 -1.055,1.144 -0.254,0.465 -0.381,0.957 -0.381,1.475 0,0.297 0.051,0.639 0.152,1.029 l 1.576,6.076 h -2.63 L -13.931,0 h 2.631 l 0.623,2.428 6.356,0.381 L -5.059,0 Z"
             style="fill:#005953;fill-opacity:1;fill-rule:nonzero;stroke:none"
             id="path86" /></g><g
           id="g88"
           transform="translate(320.3164,127.6543)"><path
             d="m 0,0 -0.369,-3.381 c -0.483,0.221 -0.862,0.363 -1.138,0.426 -0.275,0.064 -0.676,0.096 -1.201,0.096 H -7.31 c -0.77,0 -1.275,-0.075 -1.512,-0.223 -0.237,-0.148 -0.432,-0.51 -0.584,-1.086 l -2.25,-8.732 c -0.102,-0.383 -0.153,-0.645 -0.153,-0.789 0,-0.374 0.195,-0.616 0.584,-0.725 0.204,-0.051 0.573,-0.076 1.106,-0.076 h 4.424 c 1.119,0.008 2.008,0.207 2.67,0.597 l -1.412,-3.457 h -8.936 c -1.321,0.026 -2.135,0.053 -2.44,0.082 -0.305,0.03 -0.627,0.118 -0.966,0.26 -0.551,0.238 -0.987,0.602 -1.309,1.094 -0.322,0.492 -0.483,1.039 -0.483,1.641 0,0.322 0.092,0.845 0.28,1.576 l 2.363,9.138 c 0.365,1.389 1.069,2.364 2.111,2.924 0.516,0.28 0.995,0.453 1.436,0.522 0.441,0.066 1.292,0.105 2.555,0.113 z"
             style="fill:#005953;fill-opacity:1;fill-rule:nonzero;stroke:none"
             id="path90" /></g><g
           id="g92"
           transform="translate(328.4902,127.6543)"><path
             d="m 0,0 -1.373,-5.313 c 0.305,0.297 0.6,0.491 0.883,0.584 0.284,0.094 0.706,0.141 1.265,0.141 H 4.08 c 0.814,0 1.43,-0.057 1.85,-0.172 0.419,-0.115 0.802,-0.328 1.15,-0.642 0.356,-0.323 0.637,-0.707 0.845,-1.157 0.208,-0.449 0.311,-0.89 0.311,-1.322 0,-0.363 -0.076,-0.844 -0.228,-1.435 l -1.487,-5.747 c -0.111,-0.423 -0.166,-0.88 -0.166,-1.373 0,-0.271 0.055,-0.576 0.166,-0.914 h -7.347 c 0.338,0.491 0.588,0.928 0.75,1.309 0.16,0.381 0.334,0.932 0.52,1.652 l 1.45,5.606 c 0.092,0.355 0.139,0.623 0.139,0.801 0,0.611 -0.431,0.916 -1.297,0.916 h -1.245 c -0.542,0 -0.921,-0.096 -1.137,-0.288 -0.217,-0.189 -0.405,-0.589 -0.566,-1.201 l -1.679,-6.508 c -0.109,-0.423 -0.164,-0.88 -0.164,-1.373 0,-0.279 0.055,-0.584 0.164,-0.914 h -7.345 c 0.33,0.491 0.578,0.928 0.743,1.309 0.165,0.381 0.341,0.932 0.527,1.652 l 3.127,12.102 c 0.11,0.424 0.165,0.881 0.165,1.373 0,0.279 -0.055,0.584 -0.165,0.914 z"
             style="fill:#005953;fill-opacity:1;fill-rule:nonzero;stroke:none"
             id="path94" /></g><g
           id="g96"
           transform="translate(356.4287,123.0664)"><path
             d="m 0,0 -2.708,-10.461 c -0.109,-0.441 -0.164,-0.902 -0.164,-1.387 0,-0.279 0.059,-0.584 0.178,-0.914 h -5.758 l -0.065,1.016 c -0.33,-0.678 -0.944,-1.016 -1.842,-1.016 h -4.754 c -1.085,0 -1.903,0.19 -2.453,0.573 -0.424,0.294 -0.761,0.668 -1.011,1.117 -0.25,0.449 -0.375,0.908 -0.375,1.373 0,0.297 0.068,0.707 0.203,1.232 l 1.602,6.166 c 0.11,0.44 0.166,0.899 0.166,1.373 0,0.28 -0.06,0.588 -0.178,0.928 h 6.85 l -2.351,-9.076 c -0.051,-0.195 -0.076,-0.352 -0.076,-0.471 0,-0.49 0.335,-0.736 1.005,-0.736 h 1.728 c 0.424,0 0.732,0.074 0.928,0.222 0.194,0.149 0.343,0.43 0.445,0.844 l 1.791,6.916 c 0.119,0.457 0.179,0.914 0.179,1.373 0,0.272 -0.06,0.58 -0.179,0.928 z"
             style="fill:#005953;fill-opacity:1;fill-rule:nonzero;stroke:none"
             id="path98" /></g><g
           id="g100"
           transform="translate(364.0059,123.0664)"><path
             d="m 0,0 c -0.018,-0.305 -0.035,-0.678 -0.051,-1.119 -0.01,-0.313 -0.039,-0.666 -0.09,-1.055 0.442,0.848 0.91,1.422 1.405,1.723 C 1.76,-0.15 2.479,0 3.419,0 H 6.953 L 5.872,-4.182 C 5.414,-3.768 4.703,-3.547 3.736,-3.521 H 1.551 C 1,-3.521 0.6,-3.602 0.35,-3.764 0.1,-3.924 -0.081,-4.213 -0.191,-4.627 l -1.512,-5.848 c -0.111,-0.423 -0.166,-0.884 -0.166,-1.384 0,-0.272 0.055,-0.573 0.166,-0.903 h -7.348 c 0.33,0.491 0.578,0.928 0.744,1.309 0.164,0.381 0.34,0.932 0.528,1.652 l 1.944,7.5 c 0.11,0.44 0.165,0.899 0.165,1.373 0,0.28 -0.059,0.588 -0.178,0.928 z"
             style="fill:#005953;fill-opacity:1;fill-rule:nonzero;stroke:none"
             id="path102" /></g><g
           id="g104"
           transform="translate(384.3945,120.168)"><path
             d="m 0,0 c -0.382,0.254 -1.051,0.395 -2.009,0.42 h -4.284 c -0.576,0 -0.977,-0.086 -1.201,-0.254 -0.225,-0.17 -0.404,-0.521 -0.539,-1.057 L -9.33,-5.885 c -0.085,-0.322 -0.127,-0.543 -0.127,-0.662 0,-0.305 0.133,-0.519 0.4,-0.648 0.267,-0.127 0.713,-0.19 1.34,-0.19 h 3.637 c 0.609,0 1.053,0.02 1.328,0.057 0.275,0.039 0.573,0.125 0.896,0.262 L -3,-9.863 h -8.479 c -1.423,0 -2.436,0.24 -3.038,0.724 -0.788,0.627 -1.182,1.389 -1.182,2.287 0,0.34 0.081,0.823 0.242,1.45 l 1.373,5.3 c 0.262,1.11 0.805,1.928 1.627,2.454 0.686,0.388 1.703,0.572 3.051,0.546 h 9.749 z"
             style="fill:#005953;fill-opacity:1;fill-rule:nonzero;stroke:none"
             id="path106" /></g><g
           id="g108"
           transform="translate(393.1016,127.6543)"><path
             d="m 0,0 -1.373,-5.313 c 0.305,0.297 0.6,0.491 0.884,0.584 0.284,0.094 0.706,0.141 1.264,0.141 H 4.08 c 0.815,0 1.43,-0.057 1.85,-0.172 0.42,-0.115 0.802,-0.328 1.15,-0.642 0.356,-0.323 0.638,-0.707 0.846,-1.157 0.207,-0.449 0.31,-0.89 0.31,-1.322 0,-0.363 -0.076,-0.844 -0.228,-1.435 l -1.487,-5.747 c -0.111,-0.423 -0.166,-0.88 -0.166,-1.373 0,-0.271 0.055,-0.576 0.166,-0.914 h -7.347 c 0.339,0.491 0.589,0.928 0.75,1.309 0.16,0.381 0.334,0.932 0.521,1.652 l 1.45,5.606 c 0.092,0.355 0.138,0.623 0.138,0.801 0,0.611 -0.431,0.916 -1.296,0.916 h -1.245 c -0.543,0 -0.922,-0.096 -1.138,-0.288 -0.216,-0.189 -0.405,-0.589 -0.565,-1.201 l -1.679,-6.508 c -0.11,-0.423 -0.165,-0.88 -0.165,-1.373 0,-0.279 0.055,-0.584 0.165,-0.914 h -7.346 c 0.33,0.491 0.578,0.928 0.744,1.309 0.164,0.381 0.34,0.932 0.527,1.652 l 3.127,12.102 c 0.109,0.424 0.164,0.881 0.164,1.373 0,0.279 -0.055,0.584 -0.164,0.914 z"
             style="fill:#005953;fill-opacity:1;fill-rule:nonzero;stroke:none"
             id="path110" /></g><g
           id="g112"
           transform="translate(182.4678,116.0322)"><path
             d="m 0,0 h -71 l 1.059,3.578 H 1.06 Z"
             style="fill:#005953;fill-opacity:1;fill-rule:nonzero;stroke:none"
             id="path114" /></g><g
           id="g116"
           transform="translate(480.0586,116.0322)"><path
             d="M 0,0 H -72.061 L -71,3.578 H 1.06 Z"
             style="fill:#005953;fill-opacity:1;fill-rule:nonzero;stroke:none"
             id="path118" /></g><g
           id="g120"
           transform="translate(333.0674,303.8838)"><path
             d="m 0,0 c -10.052,-53.404 -47.455,-115.53 -92.364,-130.079 14.044,-1.9 47.76,-0.682 71.502,12.238 l -6.039,6.438 c -9.58,-6.895 -27.373,-15.228 -44.562,-15.776 C -28.598,-100.912 -3.866,-43.547 0,0"
             style="fill:#005953;fill-opacity:1;fill-rule:evenodd;stroke:none"
             id="path122" /></g><g
           id="g124"
           transform="translate(362.5303,176.916)"><path
             d="M 0,0 C 5.79,-0.227 10.007,-0.012 16.22,1.076 -23.311,22.725 -30.792,92.139 -22.276,145.642 -32.659,94.338 -33.41,36.938 -4.325,5.908"
             style="fill:#005953;fill-opacity:1;fill-rule:evenodd;stroke:none"
             id="path126" /></g><g
           id="g128"
           transform="translate(323.373,189.9219)"><path
             d="M 0,0 C 0.761,11.729 0.895,22.862 1.098,34.013 0.868,28.95 -1.33,16.956 -4.536,3.169 -3.045,2.05 -1.535,0.993 0,0"
             style="fill:#439539;fill-opacity:1;fill-rule:evenodd;stroke:none"
             id="path130" /></g><g
           id="g132"
           transform="translate(317.8301,188.8398)"><path
             d="M 0,0 C -6.326,-26.224 -15.81,-56.854 -22.296,-58.871 L -4.3,-57.148 C 1.303,-37.197 3.895,-19.973 5.176,-3.979 3.363,-2.728 1.637,-1.398 0,0"
             style="fill:#439539;fill-opacity:1;fill-rule:evenodd;stroke:none"
             id="path134" /></g><g
           id="g136"
           transform="translate(355.8223,181.1328)"><path
             d="M 0,0 C -23.168,2.805 -36.578,11.931 -52.089,28.037 -43.073,9.488 -21.924,-4.83 4.56,-6.303 Z"
             style="fill:#54b947;fill-opacity:1;fill-rule:evenodd;stroke:none"
             id="path138" /></g></g></g></g></svg>
